<?xml version="1.0" standalone="no"?>
<!DOCTYPE svg PUBLIC "-//W3C//DTD SVG 20010904//EN"
 "http://www.w3.org/TR/2001/REC-SVG-20010904/DTD/svg10.dtd">
<svg version="1.0" xmlns="http://www.w3.org/2000/svg"
 width="301.000000pt" height="372.000000pt" viewBox="0 0 301.000000 372.000000"
 preserveAspectRatio="xMidYMid meet">
<metadata>
Created by potrace 1.15, written by Peter Selinger 2001-2017
</metadata>
<g transform="translate(0.000000,372.000000) scale(0.100000,-0.100000)"
fill="#000000" stroke="none">
<path d="M788 3608 c-31 -24 -80 -27 -213 -14 -190 20 -315 -80 -303 -241 2
-32 12 -74 21 -93 17 -34 17 -34 -8 -60 -18 -18 -36 -25 -63 -25 -33 0 -37 -3
-34 -23 2 -12 -10 -58 -27 -102 -56 -144 -39 -266 47 -341 28 -25 36 -39 34
-60 -3 -20 3 -32 17 -41 15 -9 21 -23 21 -51 0 -32 7 -46 37 -75 l38 -37 -2
-92 c-2 -86 0 -94 21 -111 13 -10 31 -32 40 -50 24 -47 70 -72 134 -72 l52 0
0 -88 c0 -65 -7 -110 -24 -170 -38 -127 -66 -313 -73 -482 -15 -407 75 -771
258 -1035 45 -66 145 -174 151 -164 142 223 276 378 423 487 109 81 386 211
450 212 6 0 -40 -28 -102 -63 -165 -92 -262 -166 -414 -317 -99 -98 -155 -164
-207 -243 -40 -59 -72 -112 -72 -116 0 -13 43 -39 70 -43 20 -2 35 14 99 108
106 156 165 226 278 335 258 247 635 416 974 436 l107 6 6 44 c24 180 17 421
-20 660 l-16 102 146 161 c137 152 164 190 133 190 -7 0 -86 -27 -175 -60 -90
-33 -167 -60 -172 -60 -5 0 -29 40 -53 89 l-45 89 53 143 c29 79 56 154 59
167 13 42 -24 24 -130 -64 l-104 -85 -60 53 c-74 65 -158 117 -247 153 -38 15
-74 30 -82 34 -8 4 -25 47 -37 97 -39 150 -44 164 -58 164 -18 0 -20 -7 -42
-125 l-18 -101 -135 0 c-202 -1 -361 -42 -496 -129 -31 -19 -59 -35 -63 -35
-4 0 -25 46 -46 103 l-37 103 35 53 c60 89 71 173 35 271 -32 88 -32 90 -19
115 18 34 -1 55 -51 55 -31 0 -39 4 -39 18 0 28 30 50 112 82 133 52 174 107
166 221 -3 48 -10 65 -33 89 -16 17 -33 30 -38 30 -4 0 -20 -14 -34 -30 -32
-38 -73 -60 -113 -60 -26 0 -30 3 -30 29 0 26 -33 82 -48 80 -4 0 -19 -10 -34
-21z m5 -125 c-3 -31 -1 -32 43 -39 65 -9 132 0 165 25 37 27 39 27 39 -8 0
-51 -41 -86 -148 -127 -54 -21 -109 -50 -125 -65 -17 -17 -34 -26 -43 -22 -9
3 -33 0 -54 -7 -36 -12 -41 -11 -70 14 -39 32 -81 34 -122 4 -36 -25 -51 -19
-86 33 -46 66 -13 167 65 204 30 15 54 17 132 12 53 -3 114 -2 136 3 61 12 70
9 68 -27z m-203 -305 c35 -21 41 -21 90 -9 57 15 60 13 76 -32 10 -29 15 -32
52 -32 42 0 42 0 42 -36 0 -20 7 -53 15 -72 8 -20 15 -58 15 -84 l-1 -48 -22
45 c-46 94 -155 143 -317 143 -164 0 -270 -51 -303 -146 l-14 -42 -8 39 c-6
30 -3 48 14 83 11 24 21 61 21 83 0 38 0 39 34 33 30 -5 36 -2 52 26 23 38 33
42 79 30 32 -9 41 -7 73 15 46 31 54 31 102 4z m44 -252 c37 -16 76 -60 76
-87 0 -24 -5 -24 -40 1 -63 45 -190 45 -252 -1 l-28 -20 0 23 c0 33 27 68 64
84 41 17 138 18 180 0z m-19 -123 c43 -7 123 -49 136 -73 5 -8 87 -220 183
-470 135 -353 177 -473 186 -535 7 -44 25 -108 40 -142 l28 -62 -51 -15 c-101
-29 -171 -103 -218 -231 -24 -64 -39 -89 -39 -64 0 8 -38 132 -84 275 -48 145
-87 285 -91 319 -3 33 -12 192 -21 354 -14 275 -14 294 2 306 16 11 15 14 -12
26 -28 14 -29 16 -38 120 l-8 105 -42 12 c-27 7 -47 20 -55 36 -19 34 -7 60
22 52 12 -4 40 -10 62 -13z m-135 -43 c0 -17 -7 -33 -17 -39 -15 -8 -11 -10
20 -11 25 0 37 -5 37 -14 0 -27 -12 -46 -30 -46 -13 0 -16 -6 -13 -24 4 -19
-1 -28 -25 -40 -16 -8 -39 -28 -51 -43 -17 -24 -22 -26 -31 -13 -21 31 -23 60
-5 80 18 19 17 20 -8 20 -24 0 -27 4 -27 35 0 19 5 35 11 35 6 0 8 9 4 20 -5
17 2 24 47 45 72 33 88 33 88 -5z m1299 -335 c27 -154 48 -281 47 -283 -2 -1
-27 2 -56 8 -29 5 -70 10 -92 10 -38 0 -39 1 -34 28 3 15 19 133 36 262 32
244 41 296 47 270 1 -8 25 -141 52 -295z m-1195 133 c42 -48 60 -105 53 -164
-2 -25 1 -48 9 -59 16 -22 17 -25 6 -43 -7 -10 -16 -9 -45 3 -44 18 -80 18
-130 1 -34 -12 -39 -12 -44 1 -4 9 -1 24 6 35 8 12 11 53 10 111 l-2 92 44 32
c24 17 47 32 51 32 3 1 23 -18 42 -41z m772 -340 c68 -62 124 -116 124 -120 0
-4 -11 -15 -25 -24 -14 -9 -36 -35 -49 -56 l-24 -40 -15 23 c-29 45 -247 421
-247 426 0 3 25 -18 56 -46 31 -28 112 -102 180 -163z m898 -24 c-58 -126
-107 -230 -109 -232 -1 -2 -33 20 -69 48 -37 27 -72 50 -79 50 -6 0 71 83 173
185 101 101 186 183 188 181 1 -2 -45 -107 -104 -232z m-477 -108 c120 -32
241 -106 353 -216 57 -57 99 -124 85 -138 -3 -3 -27 15 -53 41 -26 26 -51 47
-54 47 -4 0 -16 -14 -28 -31 l-22 -30 53 -49 54 -48 -28 -11 c-16 -6 -39 -11
-53 -11 -52 0 -156 69 -174 116 -13 34 -115 59 -232 56 -134 -3 -178 -6 -178
-12 0 -3 9 -16 18 -28 17 -22 22 -23 73 -14 69 13 148 0 202 -32 23 -13 78
-54 122 -91 65 -55 84 -65 105 -60 48 11 54 10 58 -10 7 -44 10 -47 34 -31 28
20 48 20 48 2 0 -23 -87 -96 -114 -96 -45 0 -39 -30 39 -205 41 -93 72 -172
67 -175 -4 -4 -54 -17 -112 -29 -58 -13 -156 -40 -218 -61 -129 -43 -116 -48
-142 57 l-14 52 43 61 c23 33 41 60 39 60 -2 0 -25 -7 -52 -15 -72 -22 -103
-19 -121 9 -24 35 -16 79 14 86 14 3 26 11 29 19 3 10 -7 12 -39 9 -35 -2 -44
0 -47 15 -3 15 5 17 55 17 l58 1 -29 15 c-16 9 -41 14 -57 12 -39 -6 -37 12 3
42 l32 24 -29 12 c-17 7 -39 13 -51 14 -21 0 -21 2 -8 73 14 81 7 98 -30 73
-14 -9 -28 -16 -31 -16 -3 0 -5 22 -5 48 0 39 5 53 25 72 24 23 34 60 16 60
-19 0 -64 -45 -78 -78 -11 -27 -17 -32 -24 -21 -14 23 -10 62 11 97 13 21 20
50 20 85 1 169 180 283 367 233z m808 -112 c-258 -243 -285 -266 -285 -248 0
11 -12 44 -27 74 -15 30 -27 59 -27 64 -1 7 406 194 424 195 3 0 -35 -38 -85
-85z m-345 -554 c0 -67 4 -77 65 -200 36 -71 65 -132 65 -135 0 -3 -24 -5 -54
-5 l-54 0 -66 131 c-36 71 -66 142 -66 157 0 18 15 41 47 74 26 26 51 48 55
48 4 0 8 -32 8 -70z m-894 22 c9 -6 104 -178 104 -188 0 -2 -14 -4 -31 -4 -56
0 -118 -22 -158 -56 -64 -55 -98 -136 -121 -294 -19 -130 -46 -231 -78 -295
-18 -37 -152 -218 -157 -213 -3 2 2 28 10 58 28 107 36 238 25 401 -15 208 3
330 64 433 32 56 124 139 167 153 39 13 159 16 175 5z m174 -387 c59 -117 68
-131 95 -135 29 -5 27 -7 -30 -29 -131 -53 -297 -143 -384 -208 -24 -18 -46
-32 -48 -29 -2 2 1 16 8 32 6 16 26 102 44 191 19 89 43 179 54 200 38 74 99
114 166 110 28 -2 34 -11 95 -132z"/>
<path d="M1625 2019 c-22 -5 -43 -13 -47 -17 -5 -5 -1 -28 7 -53 l15 -44 95 0
c52 0 95 2 95 5 1 3 5 24 9 48 8 39 6 44 -13 51 -38 15 -120 20 -161 10z"/>
<path d="M1865 1924 c-9 -25 -16 -46 -14 -47 2 -1 39 -19 81 -39 l77 -37 21
28 c11 16 20 33 20 38 0 8 -148 103 -161 103 -4 0 -14 -21 -24 -46z"/>
<path d="M1608 1673 c-46 -19 -49 -41 -8 -71 34 -25 50 -28 50 -8 0 20 47 29
85 16 35 -12 95 -2 98 15 1 6 -21 22 -48 37 -58 32 -119 36 -177 11z"/>
</g>
</svg>
